<svg width="300" height="300" viewBox="0 0 300 300" fill="none" xmlns="http://www.w3.org/2000/svg">
<g clip-path="url(#clip0_906_1599)">
<rect width="300" height="300" fill="white"/>
<rect width="300" height="300" fill="#01020B"/>
<path d="M102.247 60C99.937 60 97.8045 61.2293 96.6586 63.2211L48.848 146.328C47.7173 148.294 47.7173 150.706 48.848 152.672L76.5296 200.789C79.7375 206.366 87.8323 206.366 91.0403 200.789C92.5083 198.238 92.5083 195.105 91.0403 192.553L67.1846 151.086C66.6192 150.103 66.6192 148.897 67.1846 147.914L94.5558 100.336C98.5091 93.4641 108.484 93.4641 112.438 100.336L117.562 109.243C121.475 116.044 116.554 124.511 108.667 124.546L102.13 124.576C99.1217 124.589 96.349 126.196 94.8563 128.79C91.6399 134.381 95.7231 141.334 102.206 141.305L139.299 141.14C142.962 141.123 146.34 139.176 148.171 136.025L166.977 103.669C170.193 98.1354 166.172 91.2183 159.74 91.2183C156.754 91.2183 153.995 92.8005 152.502 95.3688L149.569 100.416C145.595 107.253 135.653 107.231 131.71 100.377L118.136 76.7813C118.123 76.7584 118.139 76.7298 118.166 76.7298C118.193 76.7298 118.209 76.7012 118.196 76.6782L111.026 64.2147C109.527 61.6085 106.736 60 103.714 60L102.247 60Z" fill="white"/>
<path d="M142.362 60C135.896 60 131.842 66.9385 135.05 72.515C136.549 75.1213 139.34 76.7298 142.362 76.7298L189.996 76.7298C191.151 76.7298 192.217 77.3444 192.79 78.3403L220.112 125.832C224.034 132.65 219.077 141.135 211.171 141.135H202.021C194.135 141.135 189.175 132.69 193.058 125.871L195.896 120.887C197.346 118.34 197.339 115.224 195.877 112.683C192.661 107.093 184.54 107.111 181.349 112.715L163.272 144.464C161.493 147.588 161.493 151.41 163.272 154.534L181.349 186.284C184.541 191.888 192.662 191.906 195.878 186.316C197.339 183.776 197.346 180.659 195.896 178.112L193.059 173.129C189.176 166.31 194.136 157.865 202.022 157.865H242.189C245.884 157.865 249.319 155.859 251.152 152.672C252.283 150.706 252.283 148.294 251.152 146.328L203.341 63.2211C202.196 61.2292 200.063 60 197.753 60L142.362 60Z" fill="white"/>
<path d="M216.885 178.777C218.373 176.19 221.142 174.594 224.141 174.594C230.557 174.594 234.579 181.479 231.396 187.013L203.341 235.779C202.196 237.771 200.063 239 197.753 239H102.247C99.937 239 97.8045 237.771 96.6586 235.779L95.7785 234.249C94.3104 231.697 94.3104 228.565 95.7785 226.013L103.009 213.445C103.02 213.426 103.048 213.426 103.059 213.445C103.07 213.465 103.099 213.465 103.11 213.445L116.602 189.992C120.515 183.19 115.594 174.723 107.708 174.688L102.268 174.664C99.2594 174.65 96.4866 173.044 94.994 170.449C91.7775 164.858 95.8608 157.905 102.344 157.934L139.299 158.099C142.961 158.116 146.34 160.063 148.171 163.214L166.838 195.331C170.054 200.865 166.034 207.782 159.601 207.782C156.615 207.782 153.856 206.2 152.364 203.632L149.085 197.991C145.112 191.155 135.17 191.176 131.226 198.031L126.086 206.967C122.163 213.786 127.12 222.27 135.026 222.27H189.996C191.151 222.27 192.217 221.656 192.79 220.66L216.885 178.777Z" fill="white"/>
</g>
<defs>
<clipPath id="clip0_906_1599">
<rect width="300" height="300" fill="white"/>
</clipPath>
</defs>
</svg>
