<svg width="14" height="14" viewBox="0 0 14 14" fill="none" xmlns="http://www.w3.org/2000/svg">
<path d="M0.0045001 10.0584C0.0449032 10.7459 0.346494 11.392 0.847565 11.8644C1.34864 12.3369 2.01131 12.6 2.7 12.6H4.5027C4.5087 12.4974 4.5249 12.3933 4.5513 12.2877L4.698 11.7H2.7L2.565 11.6955C2.11216 11.6614 1.68893 11.4575 1.38015 11.1245C1.07137 10.7915 0.899856 10.3541 0.9 9.9V6.3H3.6L3.7584 6.2955C4.4459 6.2551 5.09198 5.95351 5.56444 5.45244C6.03691 4.95136 6.30004 4.28869 6.3 3.6V0.9H9.9L10.035 0.9045C10.4878 0.938559 10.9111 1.14252 11.2199 1.47551C11.5286 1.80849 11.7001 2.24588 11.7 2.7V4.5027C12.0045 4.48884 12.3091 4.52844 12.6 4.6197V2.7L12.5955 2.5416C12.5551 1.8541 12.2535 1.20802 11.7524 0.735555C11.2514 0.263093 10.5887 -3.83596e-05 9.9 4.1944e-09H5.9589L5.8005 0.00719991C5.37955 0.0444313 4.98512 0.228584 4.6863 0.5274L0.5274 4.6863L0.4194 4.8033C0.148514 5.12711 6.21068e-05 5.53583 0 5.958V9.9L0.0045001 10.0584ZM3.6 5.4L1.0962 5.3991C1.1166 5.3721 1.1391 5.3466 1.1637 5.3226L5.3226 1.1637L5.4 1.0971V3.6L5.3955 3.735C5.36144 4.18784 5.15748 4.61107 4.82449 4.91985C4.49151 5.22863 4.05412 5.40014 3.6 5.4ZM6.282 10.2393L10.629 5.8923C10.7854 5.73605 10.971 5.61214 11.1752 5.52762C11.3795 5.44311 11.5984 5.39965 11.8194 5.39973C12.0405 5.39982 12.2594 5.44344 12.4635 5.52811C12.6677 5.61278 12.8533 5.73684 13.0095 5.8932C13.1657 6.04957 13.2897 6.23517 13.3742 6.43943C13.4587 6.64369 13.5022 6.86259 13.5021 7.08364C13.502 7.30469 13.4584 7.52356 13.3737 7.72775C13.289 7.93194 13.165 8.11745 13.0086 8.2737L8.6616 12.6198C8.40829 12.873 8.09102 13.0528 7.7436 13.14L6.3954 13.4766C6.26134 13.51 6.12092 13.5082 5.98779 13.4713C5.85465 13.4344 5.73331 13.3637 5.63558 13.266C5.53784 13.1684 5.46702 13.0471 5.43 12.914C5.39298 12.7809 5.39102 12.6405 5.4243 12.5064L5.7618 11.1582C5.84897 10.8108 6.02876 10.4935 6.282 10.2402" fill="#4F5051"/>
</svg>
