<svg width="9" height="13" viewBox="0 0 9 13" fill="none" xmlns="http://www.w3.org/2000/svg">
<path d="M4.8374e-08 10.7623V1.00031C-5.89237e-05 0.810681 0.0538022 0.624942 0.1553 0.464761C0.256798 0.304579 0.401749 0.176559 0.573245 0.0956333C0.744741 0.0147074 0.935712 -0.0157882 1.12388 0.00770363C1.31205 0.0311955 1.48966 0.107707 1.636 0.228312L7.563 5.10931C7.67694 5.20313 7.76871 5.321 7.83171 5.45448C7.89471 5.58795 7.92738 5.73372 7.92738 5.88131C7.92738 6.02891 7.89471 6.17467 7.83171 6.30815C7.76871 6.44162 7.67694 6.5595 7.563 6.65331L1.636 11.5333C1.48979 11.6538 1.31237 11.7303 1.12438 11.7539C0.936387 11.7774 0.745571 11.7471 0.574148 11.6664C0.402725 11.5857 0.257749 11.458 0.156102 11.2981C0.0544552 11.1382 0.000319836 10.9518 4.8374e-08 10.7623Z" stroke="#0072FF" stroke-width="2" stroke-linecap="round" stroke-linejoin="round"/>
</svg>
