<?xml version="1.0" encoding="UTF-8" standalone="no"?>
<svg
   width="24"
   height="24"
   viewBox="0 0 24 24"
   fill="none"
   version="1.1"
   id="svg1"
   sodipodi:docname="bookmarked-icon.svg"
   inkscape:version="1.4.2 (1:1.4.2+202505120738+ebf0e940d0)"
   xmlns:inkscape="http://www.inkscape.org/namespaces/inkscape"
   xmlns:sodipodi="http://sodipodi.sourceforge.net/DTD/sodipodi-0.dtd"
   xmlns="http://www.w3.org/2000/svg"
   xmlns:svg="http://www.w3.org/2000/svg">
  <defs
     id="defs1" />
  <sodipodi:namedview
     id="namedview1"
     pagecolor="#505050"
     bordercolor="#ffffff"
     borderopacity="1"
     inkscape:showpageshadow="0"
     inkscape:pageopacity="0"
     inkscape:pagecheckerboard="1"
     inkscape:deskcolor="#505050"
     inkscape:zoom="26.523542"
     inkscape:cx="9.6895053"
     inkscape:cy="10.349297"
     inkscape:window-width="1920"
     inkscape:window-height="1016"
     inkscape:window-x="0"
     inkscape:window-y="0"
     inkscape:window-maximized="1"
     inkscape:current-layer="svg1" />
  <path
     d="M 12.060059,5.9511472 V 13.251064 M 16.691173,9.6011053 H 7.428945 M 19.778582,1.0845364 c 1.704043,0 3.087408,1.0903317 3.087408,2.4333056 v 18.24979 c -2.05e-4,0.433615 -0.293096,0.834301 -0.768968,1.052 -0.475875,0.217537 -1.062686,0.219158 -1.540413,0.004 l -6.965195,-3.136536 c -0.948945,-0.427289 -2.113765,-0.427289 -3.062711,0 l -6.9651944,3.136551 c -0.4777045,0.215103 -1.0645388,0.213482 -1.5403908,-0.0041 -0.475852,-0.217699 -0.7688062,-0.618385 -0.7689913,-1.052 V 3.517842 c 0,-1.3429739 1.3834269,-2.4333056 3.0874092,-2.4333056 l 7.7185233,4.8666108"
     stroke="#4f5051"
     stroke-width="1.7311"
     stroke-linecap="round"
     stroke-linejoin="round"
     id="path1" />
</svg>
